<svg
  fill="none"
  height="35"
  viewBox="0 0 21 35"
  width="21"
  xmlns="http://www.w3.org/2000/svg"
>
  <title>Mocha Icon</title>
  <path
    d="M20.3493 13.6486C20.3493 13.1715 19.9676 12.6944 19.3951 12.6944H10.4256H1.45602C0.978919 12.6944 0.501816 13.076 0.501816 13.6486C0.501816 16.8929 0.978919 28.0571 5.74995 33.4961C5.94079 33.6869 6.13163 33.7823 6.41789 33.7823H14.4332C14.7195 33.7823 14.9103 33.6869 15.1012 33.4961C19.8722 28.1525 20.3493 16.9883 20.3493 13.6486ZM13.2882 31.0151H7.65836C7.3721 31.0151 7.18125 30.9197 6.99041 30.7289C3.74611 26.912 3.36443 19.2784 3.26901 16.6066C3.26901 16.1295 3.65069 15.6524 4.22321 15.6524H10.521H16.8187C17.2958 15.6524 17.7729 16.0341 17.7729 16.6066C17.7729 19.2784 17.2958 26.8166 14.0515 30.7289C13.7653 30.9197 13.5744 31.0151 13.2882 31.0151Z"
    fill="#bc987a"
  />
  <path
    d="M12.2385 10.786C12.2385 10.786 15.6737 8.78213 13.5744 5.15615C12.334 3.24774 11.7614 1.62559 12.2385 0.957642C10.9981 2.48437 8.89882 4.10652 11.1889 7.54166C11.9523 8.40045 12.334 10.2134 12.2385 10.786Z"
    fill="#bc987a"
  />
  <path
    d="M8.42172 11.0722C8.42172 11.0722 10.7118 9.73635 9.2805 7.25542C8.42172 6.01495 8.04004 4.8699 8.42172 4.48822C7.56293 5.53785 6.22705 6.58747 7.75378 8.97299C8.23088 9.45009 8.42172 10.6906 8.42172 11.0722Z"
    fill="#bc987a"
  />
  <path
    d="M16.2462 22.141C15.8645 24.7174 15.1012 27.6754 13.479 29.5838C13.2882 29.7747 13.0973 29.8701 12.9065 29.8701H8.13547C7.94462 29.8701 7.65836 29.7747 7.56294 29.5838C6.41789 28.1525 5.65452 26.2441 5.17742 24.2403C5.17742 24.2403 10.7118 25.0036 13.8607 23.8586C16.1508 22.9998 16.2462 22.141 16.2462 22.141Z"
    fill="#bc987a"
  />
</svg>
