<svg
  fill="none"
  height="192"
  viewBox="0 0 192 192"
  width="192"
  xmlns="http://www.w3.org/2000/svg"
>
  <path
    clip-rule="evenodd"
    d="M169.474 143.901L100.771 183.596C97.813 185.314 94.187 185.314 91.229 183.596L22.5261 143.901C19.5681 142.184 17.7551 139.035 17.7551 135.695V56.305C17.7551 52.8699 19.5681 49.8164 22.5261 48.0989L91.229 8.4039C94.187 6.68633 97.813 6.68633 100.771 8.4039L169.474 48.0989C172.432 49.8164 174.245 52.9653 174.245 56.305V135.695C174.149 139.035 172.336 142.184 169.474 143.901Z"
    fill-rule="evenodd"
    fill="#8D6748"
  />
  <path
    d="M95.9046 22.049C96.8588 22.049 97.7176 22.3353 98.5764 22.8124L157.928 57.0684C159.55 58.0226 160.6 59.8356 160.6 61.744V130.256C160.6 132.164 159.55 133.977 157.928 134.932L98.5764 169.188C97.7176 169.665 96.8588 169.951 95.9046 169.951C94.9504 169.951 93.9962 169.665 93.2328 169.188L33.8812 134.932C32.259 133.977 31.2094 132.164 31.2094 130.256V61.744C31.2094 59.8356 32.259 58.0226 33.8812 57.0684L93.2328 22.8124C94.0916 22.3353 95.0458 22.049 95.9046 22.049ZM95.9046 19.1864C94.4733 19.1864 93.042 19.5681 91.8015 20.3314L32.4499 54.5874C29.8735 56.0188 28.3468 58.786 28.3468 61.6486V130.161C28.3468 133.119 29.8735 135.79 32.4499 137.222L91.8015 171.478C93.042 172.241 94.4733 172.623 95.9046 172.623C97.3359 172.623 98.7672 172.241 100.008 171.478L159.359 137.222C161.936 135.79 163.462 133.023 163.462 130.161V61.6486C163.462 58.6905 161.936 56.0188 159.359 54.5874L100.008 20.3314C98.7672 19.5681 97.3359 19.1864 95.9046 19.1864Z"
    fill="white"
  />
  <path
    d="M104.349 61.6486C104.349 61.1715 103.968 60.6944 103.395 60.6944H94.4256H85.456C84.9789 60.6944 84.5018 61.0761 84.5018 61.6486C84.5018 64.8929 84.9789 76.0571 89.7499 81.4961C89.9408 81.6869 90.1316 81.7823 90.4179 81.7823H98.4332C98.7195 81.7823 98.9103 81.6869 99.1012 81.4961C103.872 76.1525 104.349 64.9883 104.349 61.6486ZM97.2882 79.0152H91.6584C91.3721 79.0152 91.1813 78.9197 90.9904 78.7289C87.7461 74.9121 87.3644 67.2784 87.269 64.6066C87.269 64.1295 87.6507 63.6524 88.2232 63.6524H94.521H100.819C101.296 63.6524 101.773 64.0341 101.773 64.6066C101.773 67.2784 101.296 74.8166 98.0515 78.7289C97.7653 78.9197 97.5744 79.0152 97.2882 79.0152Z"
    fill="white"
  />
  <path
    d="M96.2386 58.786C96.2386 58.786 99.6737 56.7821 97.5744 53.1561C96.334 51.2477 95.7614 49.6256 96.2386 48.9576C94.9981 50.4844 92.8988 52.1065 95.1889 55.5417C95.9523 56.4005 96.334 58.2134 96.2386 58.786Z"
    fill="white"
  />
  <path
    d="M92.4217 59.0722C92.4217 59.0722 94.7118 57.7364 93.2805 55.2554C92.4217 54.015 92.04 52.8699 92.4217 52.4882C91.5629 53.5378 90.227 54.5875 91.7538 56.973C92.2309 57.4501 92.4217 58.6906 92.4217 59.0722Z"
    fill="white"
  />
  <path
    d="M100.246 70.141C99.8645 72.7174 99.1012 75.6754 97.479 77.5838C97.2882 77.7747 97.0973 77.8701 96.9065 77.8701H92.1355C91.9446 77.8701 91.6584 77.7747 91.5629 77.5838C90.4179 76.1525 89.6545 74.2441 89.1774 72.2403C89.1774 72.2403 94.7118 73.0036 97.8607 71.8586C100.151 70.9998 100.246 70.141 100.246 70.141Z"
    fill="white"
  />
  <path
    d="M37.5549 85.5992H41.0854L46.9061 94.5687L52.7267 85.5992H56.2573V104.683H52.9176V91.0381L46.9061 100.008H46.8107L40.8946 91.1335V104.779H37.5549V85.5992Z"
    fill="white"
  />
  <path
    d="M73.5285 104.97C72.0971 104.97 70.7612 104.683 69.5208 104.206C68.2803 103.729 67.2307 102.966 66.3719 102.107C65.5131 101.248 64.8452 100.198 64.3681 98.958C63.891 97.813 63.6047 96.4771 63.6047 95.1412V95.0458C63.6047 93.7099 63.891 92.4694 64.3681 91.229C64.8452 90.0839 65.5131 89.0343 66.4673 88.0801C67.3261 87.2213 68.3757 86.4579 69.6162 85.9808C70.8567 85.4083 72.1926 85.2175 73.6239 85.2175C75.0552 85.2175 76.3911 85.5037 77.6315 85.9808C78.872 86.4579 79.9216 87.2213 80.7804 88.0801C81.6392 88.9389 82.3071 89.9885 82.7842 91.229C83.2613 92.374 83.5476 93.7099 83.5476 95.0458V95.1412C83.5476 96.4771 83.2613 97.7176 82.7842 98.958C82.3071 100.103 81.6392 101.153 80.685 102.107C79.8262 102.966 78.7766 103.729 77.5361 104.206C76.2956 104.779 74.9598 104.97 73.5285 104.97ZM73.5285 101.916C74.4827 101.916 75.3414 101.725 76.1048 101.344C76.8682 100.962 77.5361 100.485 78.1086 99.9122C78.6812 99.3397 79.0628 98.5764 79.4445 97.813C79.7308 96.9542 79.9216 96.0954 79.9216 95.2366V95.1412C79.9216 94.187 79.7308 93.3282 79.4445 92.4694C79.1583 91.6106 78.6812 90.9427 78.1086 90.2748C77.5361 89.7022 76.8682 89.2251 76.1048 88.8434C75.3414 88.4618 74.4827 88.2709 73.5285 88.2709C72.5742 88.2709 71.7155 88.4618 70.9521 88.8434C70.1887 89.2251 69.5208 89.7022 68.9483 90.2748C68.3757 90.8473 67.9941 91.6106 67.6124 92.374C67.3261 93.2328 67.1353 94.0916 67.1353 94.9504V95.0458C67.1353 96 67.3261 96.8588 67.6124 97.7176C67.8986 98.5764 68.3757 99.2443 68.9483 99.9122C69.5208 100.485 70.1887 100.962 70.9521 101.344C71.7155 101.725 72.6697 101.916 73.5285 101.916Z"
    fill="white"
  />
  <path
    d="M99.6737 104.97C98.2424 104.97 97.0019 104.683 95.8568 104.206C94.7118 103.729 93.6622 102.966 92.8034 102.107C91.9446 101.248 91.2767 100.198 90.7996 98.958C90.3225 97.7176 90.0362 96.4771 90.0362 95.1412V95.0458C90.0362 93.7099 90.3225 92.374 90.7996 91.229C91.2767 90.0839 91.9446 89.0343 92.8034 88.0801C93.6622 87.2213 94.7118 86.4579 95.9523 85.9808C97.1927 85.5037 98.4332 85.2175 99.9599 85.2175C100.819 85.2175 101.582 85.3129 102.345 85.4083C103.109 85.5991 103.681 85.79 104.349 85.9808C104.922 86.2671 105.494 86.5534 105.971 86.935C106.449 87.3167 106.926 87.6984 107.403 88.1755L105.208 90.6564C104.445 89.9885 103.681 89.416 102.823 88.9389C101.964 88.4618 101.01 88.2709 99.8645 88.2709C98.9103 88.2709 98.1469 88.4618 97.3836 88.8434C96.6202 89.2251 95.9523 89.7022 95.3797 90.2748C94.8072 90.8473 94.4255 91.6106 94.0439 92.374C93.7576 93.2328 93.5668 94.0916 93.5668 94.9504V95.0458C93.5668 96 93.7576 96.8588 94.0439 97.7176C94.3301 98.5764 94.8072 99.2443 95.3797 99.9122C95.9523 100.485 96.6202 101.057 97.3836 101.344C98.1469 101.63 99.0057 101.916 99.8645 101.916C101.01 101.916 102.059 101.725 102.823 101.248C103.586 100.771 104.445 100.198 105.303 99.4351L107.498 101.63C107.021 102.202 106.544 102.584 105.971 103.061C105.399 103.538 104.826 103.824 104.254 104.111C103.681 104.397 102.918 104.683 102.25 104.779C101.391 104.97 100.532 104.97 99.6737 104.97Z"
    fill="white"
  />
  <path
    d="M114.178 85.5992H117.517V93.5191H126.678V85.5992H130.017V104.683H126.678V96.6679H117.517V104.683H114.178V85.5992Z"
    fill="white"
  />
  <path
    d="M144.808 85.5037H147.861L156.258 104.683H152.728L150.819 100.103H141.85L139.846 104.683H136.411L144.808 85.5037ZM149.579 97.145L146.334 89.5114L143.09 97.145H149.579Z"
    fill="white"
  />
  <path d="M156.831 110.695H35.1694V111.744H156.831V110.695Z" fill="white" />
  <path
    d="M156.831 74.8166H105.113C105.113 75.1983 105.017 75.4846 105.017 75.8662H156.831V74.8166Z"
    fill="white"
  />
  <path
    d="M35.1694 74.8166V75.8662H83.9293C83.9293 75.4846 83.8339 75.1983 83.8339 74.8166H35.1694Z"
    fill="white"
  />
</svg>
