<svg
  fill="none"
  height="210"
  viewBox="0 0 400 210"
  width="400"
  xmlns="http://www.w3.org/2000/svg"
>
  <rect width="400" height="210" fill="white" />
  <path
    d="M199.784 99.336C199.645 98.7173 199.389 98.232 199.016 97.88C198.643 97.528 198.12 97.352 197.448 97.352C196.968 97.352 196.547 97.4533 196.184 97.656C195.821 97.8587 195.517 98.1253 195.272 98.456C195.037 98.7867 194.856 99.1653 194.728 99.592C194.611 100.008 194.552 100.435 194.552 100.872C194.552 101.309 194.611 101.741 194.728 102.168C194.856 102.584 195.037 102.957 195.272 103.288C195.517 103.619 195.821 103.885 196.184 104.088C196.547 104.291 196.968 104.392 197.448 104.392C197.757 104.392 198.051 104.333 198.328 104.216C198.605 104.099 198.851 103.939 199.064 103.736C199.277 103.523 199.453 103.272 199.592 102.984C199.731 102.696 199.816 102.381 199.848 102.04H200.856C200.717 103.043 200.349 103.827 199.752 104.392C199.155 104.947 198.387 105.224 197.448 105.224C196.819 105.224 196.259 105.112 195.768 104.888C195.288 104.653 194.883 104.339 194.552 103.944C194.221 103.549 193.971 103.091 193.8 102.568C193.629 102.035 193.544 101.469 193.544 100.872C193.544 100.275 193.629 99.7147 193.8 99.192C193.971 98.6587 194.221 98.1947 194.552 97.8C194.883 97.4053 195.288 97.0907 195.768 96.856C196.259 96.6213 196.819 96.504 197.448 96.504C198.333 96.504 199.08 96.7387 199.688 97.208C200.307 97.6773 200.675 98.3867 200.792 99.336H199.784ZM203.273 93.576H204.281V105H203.273V93.576ZM207.114 99.272C207.146 98.792 207.247 98.376 207.418 98.024C207.589 97.672 207.818 97.384 208.106 97.16C208.405 96.936 208.751 96.7707 209.146 96.664C209.541 96.5573 209.978 96.504 210.458 96.504C210.821 96.504 211.183 96.5413 211.546 96.616C211.909 96.68 212.234 96.808 212.522 97C212.81 97.192 213.045 97.464 213.226 97.816C213.407 98.1573 213.498 98.6053 213.498 99.16V103.544C213.498 103.949 213.695 104.152 214.09 104.152C214.207 104.152 214.314 104.131 214.41 104.088V104.936C214.293 104.957 214.186 104.973 214.09 104.984C214.005 104.995 213.893 105 213.754 105C213.498 105 213.29 104.968 213.13 104.904C212.981 104.829 212.863 104.728 212.778 104.6C212.693 104.472 212.634 104.323 212.602 104.152C212.581 103.971 212.57 103.773 212.57 103.56H212.538C212.357 103.827 212.17 104.067 211.978 104.28C211.797 104.483 211.589 104.653 211.354 104.792C211.13 104.931 210.869 105.037 210.57 105.112C210.282 105.187 209.935 105.224 209.53 105.224C209.146 105.224 208.783 105.176 208.442 105.08C208.111 104.995 207.818 104.856 207.562 104.664C207.317 104.461 207.119 104.211 206.97 103.912C206.831 103.603 206.762 103.24 206.762 102.824C206.762 102.248 206.89 101.8 207.146 101.48C207.402 101.149 207.738 100.899 208.154 100.728C208.581 100.557 209.055 100.44 209.578 100.376C210.111 100.301 210.65 100.232 211.194 100.168C211.407 100.147 211.594 100.12 211.754 100.088C211.914 100.056 212.047 100.003 212.154 99.928C212.261 99.8427 212.341 99.7307 212.394 99.592C212.458 99.4533 212.49 99.272 212.49 99.048C212.49 98.7067 212.431 98.4293 212.314 98.216C212.207 97.992 212.053 97.816 211.85 97.688C211.658 97.56 211.429 97.4747 211.162 97.432C210.906 97.3787 210.629 97.352 210.33 97.352C209.69 97.352 209.167 97.5067 208.762 97.816C208.357 98.1147 208.143 98.6 208.122 99.272H207.114ZM212.49 100.488H212.458C212.394 100.605 212.271 100.691 212.09 100.744C211.909 100.797 211.749 100.835 211.61 100.856C211.183 100.931 210.741 101 210.282 101.064C209.834 101.117 209.423 101.203 209.05 101.32C208.677 101.437 208.367 101.608 208.122 101.832C207.887 102.045 207.77 102.355 207.77 102.76C207.77 103.016 207.818 103.245 207.914 103.448C208.021 103.64 208.159 103.811 208.33 103.96C208.501 104.099 208.698 104.205 208.922 104.28C209.146 104.355 209.375 104.392 209.61 104.392C209.994 104.392 210.362 104.333 210.714 104.216C211.066 104.099 211.37 103.928 211.626 103.704C211.893 103.48 212.101 103.208 212.25 102.888C212.41 102.568 212.49 102.205 212.49 101.8V100.488ZM221.451 99.16C221.44 98.8507 221.376 98.584 221.259 98.36C221.142 98.1253 220.982 97.9333 220.779 97.784C220.587 97.6347 220.363 97.528 220.107 97.464C219.851 97.3893 219.579 97.352 219.291 97.352C219.067 97.352 218.838 97.3787 218.603 97.432C218.379 97.4747 218.171 97.5547 217.979 97.672C217.787 97.7787 217.632 97.9227 217.515 98.104C217.398 98.2853 217.339 98.5093 217.339 98.776C217.339 99 217.392 99.192 217.499 99.352C217.616 99.5013 217.76 99.6293 217.931 99.736C218.102 99.8427 218.288 99.9333 218.491 100.008C218.694 100.072 218.88 100.125 219.051 100.168L220.395 100.472C220.683 100.515 220.966 100.595 221.243 100.712C221.531 100.819 221.782 100.963 221.995 101.144C222.219 101.325 222.4 101.549 222.539 101.816C222.678 102.083 222.747 102.397 222.747 102.76C222.747 103.208 222.646 103.592 222.443 103.912C222.24 104.221 221.979 104.477 221.659 104.68C221.35 104.872 220.998 105.011 220.603 105.096C220.208 105.181 219.819 105.224 219.435 105.224C218.464 105.224 217.675 104.995 217.067 104.536C216.47 104.077 216.128 103.341 216.043 102.328H217.051C217.094 103.011 217.339 103.528 217.787 103.88C218.246 104.221 218.811 104.392 219.483 104.392C219.728 104.392 219.979 104.365 220.235 104.312C220.502 104.259 220.747 104.168 220.971 104.04C221.195 103.912 221.376 103.752 221.515 103.56C221.664 103.357 221.739 103.112 221.739 102.824C221.739 102.579 221.686 102.376 221.579 102.216C221.483 102.045 221.35 101.907 221.179 101.8C221.008 101.683 220.811 101.587 220.587 101.512C220.374 101.437 220.155 101.373 219.931 101.32L218.635 101.032C218.304 100.947 218 100.851 217.723 100.744C217.446 100.627 217.2 100.488 216.987 100.328C216.784 100.157 216.624 99.9547 216.507 99.72C216.39 99.4747 216.331 99.176 216.331 98.824C216.331 98.408 216.422 98.0507 216.603 97.752C216.795 97.4533 217.04 97.2133 217.339 97.032C217.638 96.8507 217.968 96.7173 218.331 96.632C218.704 96.5467 219.072 96.504 219.435 96.504C219.851 96.504 220.235 96.5573 220.587 96.664C220.95 96.7707 221.264 96.936 221.531 97.16C221.808 97.384 222.027 97.6613 222.187 97.992C222.347 98.3227 222.438 98.712 222.459 99.16H221.451ZM230.154 99.16C230.143 98.8507 230.079 98.584 229.962 98.36C229.845 98.1253 229.685 97.9333 229.482 97.784C229.29 97.6347 229.066 97.528 228.81 97.464C228.554 97.3893 228.282 97.352 227.994 97.352C227.77 97.352 227.541 97.3787 227.306 97.432C227.082 97.4747 226.874 97.5547 226.682 97.672C226.49 97.7787 226.335 97.9227 226.218 98.104C226.101 98.2853 226.042 98.5093 226.042 98.776C226.042 99 226.095 99.192 226.202 99.352C226.319 99.5013 226.463 99.6293 226.634 99.736C226.805 99.8427 226.991 99.9333 227.194 100.008C227.397 100.072 227.583 100.125 227.754 100.168L229.098 100.472C229.386 100.515 229.669 100.595 229.946 100.712C230.234 100.819 230.485 100.963 230.698 101.144C230.922 101.325 231.103 101.549 231.242 101.816C231.381 102.083 231.45 102.397 231.45 102.76C231.45 103.208 231.349 103.592 231.146 103.912C230.943 104.221 230.682 104.477 230.362 104.68C230.053 104.872 229.701 105.011 229.306 105.096C228.911 105.181 228.522 105.224 228.138 105.224C227.167 105.224 226.378 104.995 225.77 104.536C225.173 104.077 224.831 103.341 224.746 102.328H225.754C225.797 103.011 226.042 103.528 226.49 103.88C226.949 104.221 227.514 104.392 228.186 104.392C228.431 104.392 228.682 104.365 228.938 104.312C229.205 104.259 229.45 104.168 229.674 104.04C229.898 103.912 230.079 103.752 230.218 103.56C230.367 103.357 230.442 103.112 230.442 102.824C230.442 102.579 230.389 102.376 230.282 102.216C230.186 102.045 230.053 101.907 229.882 101.8C229.711 101.683 229.514 101.587 229.29 101.512C229.077 101.437 228.858 101.373 228.634 101.32L227.338 101.032C227.007 100.947 226.703 100.851 226.426 100.744C226.149 100.627 225.903 100.488 225.69 100.328C225.487 100.157 225.327 99.9547 225.21 99.72C225.093 99.4747 225.034 99.176 225.034 98.824C225.034 98.408 225.125 98.0507 225.306 97.752C225.498 97.4533 225.743 97.2133 226.042 97.032C226.341 96.8507 226.671 96.7173 227.034 96.632C227.407 96.5467 227.775 96.504 228.138 96.504C228.554 96.504 228.938 96.5573 229.29 96.664C229.653 96.7707 229.967 96.936 230.234 97.16C230.511 97.384 230.73 97.6613 230.89 97.992C231.05 98.3227 231.141 98.712 231.162 99.16H230.154ZM233.929 93.576H234.937V95.192H233.929V93.576ZM233.929 96.744H234.937V105H233.929V96.744ZM243.69 99.336C243.552 98.7173 243.296 98.232 242.922 97.88C242.549 97.528 242.026 97.352 241.354 97.352C240.874 97.352 240.453 97.4533 240.09 97.656C239.728 97.8587 239.424 98.1253 239.178 98.456C238.944 98.7867 238.762 99.1653 238.634 99.592C238.517 100.008 238.458 100.435 238.458 100.872C238.458 101.309 238.517 101.741 238.634 102.168C238.762 102.584 238.944 102.957 239.178 103.288C239.424 103.619 239.728 103.885 240.09 104.088C240.453 104.291 240.874 104.392 241.354 104.392C241.664 104.392 241.957 104.333 242.234 104.216C242.512 104.099 242.757 103.939 242.97 103.736C243.184 103.523 243.36 103.272 243.498 102.984C243.637 102.696 243.722 102.381 243.754 102.04H244.762C244.624 103.043 244.256 103.827 243.658 104.392C243.061 104.947 242.293 105.224 241.354 105.224C240.725 105.224 240.165 105.112 239.674 104.888C239.194 104.653 238.789 104.339 238.458 103.944C238.128 103.549 237.877 103.091 237.706 102.568C237.536 102.035 237.45 101.469 237.45 100.872C237.45 100.275 237.536 99.7147 237.706 99.192C237.877 98.6587 238.128 98.1947 238.458 97.8C238.789 97.4053 239.194 97.0907 239.674 96.856C240.165 96.6213 240.725 96.504 241.354 96.504C242.24 96.504 242.986 96.7387 243.594 97.208C244.213 97.6773 244.581 98.3867 244.698 99.336H243.69ZM249.099 103.304V105C249.099 105.235 249.067 105.464 249.003 105.688C248.95 105.923 248.864 106.136 248.747 106.328C248.63 106.531 248.48 106.707 248.299 106.856C248.128 107.005 247.926 107.112 247.691 107.176V106.488C247.819 106.445 247.931 106.365 248.027 106.248C248.123 106.131 248.203 105.997 248.267 105.848C248.331 105.709 248.374 105.56 248.395 105.4C248.427 105.251 248.438 105.117 248.427 105H247.755V103.304H249.099ZM258.069 96.744H258.997V98.68H259.029C259.285 98.008 259.68 97.4907 260.213 97.128C260.757 96.7653 261.403 96.6 262.149 96.632V97.64C261.691 97.6187 261.275 97.6827 260.901 97.832C260.528 97.9707 260.203 98.1733 259.925 98.44C259.659 98.7067 259.451 99.0267 259.301 99.4C259.152 99.7627 259.077 100.163 259.077 100.6V105H258.069V96.744ZM269.771 100.296C269.76 99.912 269.691 99.544 269.563 99.192C269.446 98.84 269.275 98.5307 269.051 98.264C268.827 97.9867 268.555 97.768 268.235 97.608C267.915 97.4373 267.552 97.352 267.147 97.352C266.731 97.352 266.363 97.4373 266.043 97.608C265.723 97.768 265.451 97.9867 265.227 98.264C265.003 98.5307 264.822 98.8453 264.683 99.208C264.555 99.56 264.47 99.9227 264.427 100.296H269.771ZM264.427 101.144C264.427 101.507 264.475 101.885 264.571 102.28C264.678 102.664 264.843 103.011 265.067 103.32C265.291 103.629 265.574 103.885 265.915 104.088C266.256 104.291 266.667 104.392 267.147 104.392C267.883 104.392 268.459 104.2 268.875 103.816C269.291 103.432 269.579 102.92 269.739 102.28H270.747C270.534 103.219 270.139 103.944 269.563 104.456C268.998 104.968 268.192 105.224 267.147 105.224C266.496 105.224 265.931 105.112 265.451 104.888C264.982 104.653 264.598 104.339 264.299 103.944C264 103.539 263.776 103.075 263.627 102.552C263.488 102.019 263.419 101.459 263.419 100.872C263.419 100.328 263.488 99.7947 263.627 99.272C263.776 98.7493 264 98.2853 264.299 97.88C264.598 97.464 264.982 97.1333 265.451 96.888C265.931 96.632 266.496 96.504 267.147 96.504C267.808 96.504 268.374 96.6373 268.843 96.904C269.312 97.1707 269.691 97.5227 269.979 97.96C270.278 98.3867 270.491 98.8827 270.619 99.448C270.747 100.003 270.8 100.568 270.779 101.144H264.427ZM273.148 93.576H274.156V105H273.148V93.576ZM277.101 93.576H278.109V95.192H277.101V93.576ZM277.101 96.744H278.109V105H277.101V96.744ZM280.942 99.272C280.974 98.792 281.075 98.376 281.246 98.024C281.417 97.672 281.646 97.384 281.934 97.16C282.233 96.936 282.579 96.7707 282.974 96.664C283.369 96.5573 283.806 96.504 284.286 96.504C284.649 96.504 285.011 96.5413 285.374 96.616C285.737 96.68 286.062 96.808 286.35 97C286.638 97.192 286.873 97.464 287.054 97.816C287.235 98.1573 287.326 98.6053 287.326 99.16V103.544C287.326 103.949 287.523 104.152 287.918 104.152C288.035 104.152 288.142 104.131 288.238 104.088V104.936C288.121 104.957 288.014 104.973 287.918 104.984C287.833 104.995 287.721 105 287.582 105C287.326 105 287.118 104.968 286.958 104.904C286.809 104.829 286.691 104.728 286.606 104.6C286.521 104.472 286.462 104.323 286.43 104.152C286.409 103.971 286.398 103.773 286.398 103.56H286.366C286.185 103.827 285.998 104.067 285.806 104.28C285.625 104.483 285.417 104.653 285.182 104.792C284.958 104.931 284.697 105.037 284.398 105.112C284.11 105.187 283.763 105.224 283.358 105.224C282.974 105.224 282.611 105.176 282.27 105.08C281.939 104.995 281.646 104.856 281.39 104.664C281.145 104.461 280.947 104.211 280.798 103.912C280.659 103.603 280.59 103.24 280.59 102.824C280.59 102.248 280.718 101.8 280.974 101.48C281.23 101.149 281.566 100.899 281.982 100.728C282.409 100.557 282.883 100.44 283.406 100.376C283.939 100.301 284.478 100.232 285.022 100.168C285.235 100.147 285.422 100.12 285.582 100.088C285.742 100.056 285.875 100.003 285.982 99.928C286.089 99.8427 286.169 99.7307 286.222 99.592C286.286 99.4533 286.318 99.272 286.318 99.048C286.318 98.7067 286.259 98.4293 286.142 98.216C286.035 97.992 285.881 97.816 285.678 97.688C285.486 97.56 285.257 97.4747 284.99 97.432C284.734 97.3787 284.457 97.352 284.158 97.352C283.518 97.352 282.995 97.5067 282.59 97.816C282.185 98.1147 281.971 98.6 281.95 99.272H280.942ZM286.318 100.488H286.286C286.222 100.605 286.099 100.691 285.918 100.744C285.737 100.797 285.577 100.835 285.438 100.856C285.011 100.931 284.569 101 284.11 101.064C283.662 101.117 283.251 101.203 282.878 101.32C282.505 101.437 282.195 101.608 281.95 101.832C281.715 102.045 281.598 102.355 281.598 102.76C281.598 103.016 281.646 103.245 281.742 103.448C281.849 103.64 281.987 103.811 282.158 103.96C282.329 104.099 282.526 104.205 282.75 104.28C282.974 104.355 283.203 104.392 283.438 104.392C283.822 104.392 284.19 104.333 284.542 104.216C284.894 104.099 285.198 103.928 285.454 103.704C285.721 103.48 285.929 103.208 286.078 102.888C286.238 102.568 286.318 102.205 286.318 101.8V100.488ZM290.335 93.576H291.343V98.312H291.375C291.482 98.0133 291.631 97.752 291.823 97.528C292.026 97.304 292.255 97.1173 292.511 96.968C292.767 96.808 293.044 96.6907 293.343 96.616C293.642 96.5413 293.94 96.504 294.239 96.504C294.868 96.504 295.412 96.6213 295.871 96.856C296.34 97.0907 296.73 97.4107 297.039 97.816C297.348 98.2107 297.578 98.6747 297.727 99.208C297.876 99.7307 297.951 100.285 297.951 100.872C297.951 101.459 297.876 102.019 297.727 102.552C297.578 103.075 297.348 103.539 297.039 103.944C296.73 104.339 296.34 104.653 295.871 104.888C295.412 105.112 294.868 105.224 294.239 105.224C293.567 105.224 292.964 105.069 292.431 104.76C291.908 104.451 291.53 104.008 291.295 103.432H291.263V105H290.335V93.576ZM296.943 100.872C296.943 100.445 296.89 100.024 296.783 99.608C296.687 99.1813 296.527 98.8027 296.303 98.472C296.09 98.1413 295.812 97.8747 295.471 97.672C295.13 97.4587 294.719 97.352 294.239 97.352C293.706 97.352 293.252 97.4587 292.879 97.672C292.516 97.8747 292.218 98.1413 291.983 98.472C291.759 98.8027 291.594 99.1813 291.487 99.608C291.391 100.024 291.343 100.445 291.343 100.872C291.343 101.299 291.391 101.725 291.487 102.152C291.594 102.568 291.759 102.941 291.983 103.272C292.218 103.603 292.516 103.875 292.879 104.088C293.252 104.291 293.706 104.392 294.239 104.392C294.719 104.392 295.13 104.291 295.471 104.088C295.812 103.875 296.09 103.603 296.303 103.272C296.527 102.941 296.687 102.568 296.783 102.152C296.89 101.725 296.943 101.299 296.943 100.872ZM300.539 93.576H301.547V105H300.539V93.576ZM310.412 100.296C310.401 99.912 310.332 99.544 310.204 99.192C310.086 98.84 309.916 98.5307 309.692 98.264C309.468 97.9867 309.196 97.768 308.876 97.608C308.556 97.4373 308.193 97.352 307.788 97.352C307.372 97.352 307.004 97.4373 306.684 97.608C306.364 97.768 306.092 97.9867 305.868 98.264C305.644 98.5307 305.462 98.8453 305.324 99.208C305.196 99.56 305.11 99.9227 305.068 100.296H310.412ZM305.068 101.144C305.068 101.507 305.116 101.885 305.212 102.28C305.318 102.664 305.484 103.011 305.708 103.32C305.932 103.629 306.214 103.885 306.556 104.088C306.897 104.291 307.308 104.392 307.788 104.392C308.524 104.392 309.1 104.2 309.516 103.816C309.932 103.432 310.22 102.92 310.38 102.28H311.388C311.174 103.219 310.78 103.944 310.204 104.456C309.638 104.968 308.833 105.224 307.788 105.224C307.137 105.224 306.572 105.112 306.092 104.888C305.622 104.653 305.238 104.339 304.94 103.944C304.641 103.539 304.417 103.075 304.268 102.552C304.129 102.019 304.06 101.459 304.06 100.872C304.06 100.328 304.129 99.7947 304.268 99.272C304.417 98.7493 304.641 98.2853 304.94 97.88C305.238 97.464 305.622 97.1333 306.092 96.888C306.572 96.632 307.137 96.504 307.788 96.504C308.449 96.504 309.014 96.6373 309.484 96.904C309.953 97.1707 310.332 97.5227 310.62 97.96C310.918 98.3867 311.132 98.8827 311.26 99.448C311.388 100.003 311.441 100.568 311.42 101.144H305.068ZM315.709 103.304V105C315.709 105.235 315.677 105.464 315.613 105.688C315.559 105.923 315.474 106.136 315.357 106.328C315.239 106.531 315.09 106.707 314.909 106.856C314.738 107.005 314.535 107.112 314.301 107.176V106.488C314.429 106.445 314.541 106.365 314.637 106.248C314.733 106.131 314.813 105.997 314.877 105.848C314.941 105.709 314.983 105.56 315.005 105.4C315.037 105.251 315.047 105.117 315.037 105H314.365V103.304H315.709ZM326.279 96.744H327.959V97.592H326.279V103.16C326.279 103.491 326.321 103.752 326.407 103.944C326.503 104.125 326.732 104.227 327.095 104.248C327.383 104.248 327.671 104.232 327.959 104.2V105.048C327.809 105.048 327.66 105.053 327.511 105.064C327.361 105.075 327.212 105.08 327.063 105.08C326.391 105.08 325.921 104.952 325.655 104.696C325.388 104.429 325.26 103.944 325.271 103.24V97.592H323.831V96.744H325.271V94.264H326.279V96.744ZM330.413 96.744H331.341V98.68H331.373C331.629 98.008 332.024 97.4907 332.557 97.128C333.101 96.7653 333.746 96.6 334.493 96.632V97.64C334.034 97.6187 333.618 97.6827 333.245 97.832C332.872 97.9707 332.546 98.1733 332.269 98.44C332.002 98.7067 331.794 99.0267 331.645 99.4C331.496 99.7627 331.421 100.163 331.421 100.6V105H330.413V96.744ZM343.148 105H342.22V103.512H342.188C341.921 104.067 341.532 104.493 341.02 104.792C340.519 105.08 339.959 105.224 339.34 105.224C338.817 105.224 338.369 105.149 337.996 105C337.633 104.861 337.335 104.659 337.1 104.392C336.876 104.125 336.711 103.8 336.604 103.416C336.497 103.032 336.444 102.595 336.444 102.104V96.744H337.452V102.12C337.473 102.867 337.644 103.432 337.964 103.816C338.295 104.2 338.86 104.392 339.66 104.392C340.097 104.392 340.471 104.301 340.78 104.12C341.089 103.928 341.345 103.677 341.548 103.368C341.751 103.059 341.9 102.707 341.996 102.312C342.092 101.907 342.14 101.496 342.14 101.08V96.744H343.148V105ZM350.998 99.16C350.987 98.8507 350.923 98.584 350.806 98.36C350.688 98.1253 350.528 97.9333 350.326 97.784C350.134 97.6347 349.91 97.528 349.654 97.464C349.398 97.3893 349.126 97.352 348.838 97.352C348.614 97.352 348.384 97.3787 348.15 97.432C347.926 97.4747 347.718 97.5547 347.526 97.672C347.334 97.7787 347.179 97.9227 347.062 98.104C346.944 98.2853 346.886 98.5093 346.886 98.776C346.886 99 346.939 99.192 347.046 99.352C347.163 99.5013 347.307 99.6293 347.478 99.736C347.648 99.8427 347.835 99.9333 348.038 100.008C348.24 100.072 348.427 100.125 348.598 100.168L349.942 100.472C350.23 100.515 350.512 100.595 350.79 100.712C351.078 100.819 351.328 100.963 351.542 101.144C351.766 101.325 351.947 101.549 352.086 101.816C352.224 102.083 352.294 102.397 352.294 102.76C352.294 103.208 352.192 103.592 351.99 103.912C351.787 104.221 351.526 104.477 351.206 104.68C350.896 104.872 350.544 105.011 350.15 105.096C349.755 105.181 349.366 105.224 348.982 105.224C348.011 105.224 347.222 104.995 346.614 104.536C346.016 104.077 345.675 103.341 345.59 102.328H346.598C346.64 103.011 346.886 103.528 347.334 103.88C347.792 104.221 348.358 104.392 349.03 104.392C349.275 104.392 349.526 104.365 349.782 104.312C350.048 104.259 350.294 104.168 350.518 104.04C350.742 103.912 350.923 103.752 351.062 103.56C351.211 103.357 351.286 103.112 351.286 102.824C351.286 102.579 351.232 102.376 351.126 102.216C351.03 102.045 350.896 101.907 350.726 101.8C350.555 101.683 350.358 101.587 350.134 101.512C349.92 101.437 349.702 101.373 349.478 101.32L348.182 101.032C347.851 100.947 347.547 100.851 347.27 100.744C346.992 100.627 346.747 100.488 346.534 100.328C346.331 100.157 346.171 99.9547 346.054 99.72C345.936 99.4747 345.878 99.176 345.878 98.824C345.878 98.408 345.968 98.0507 346.15 97.752C346.342 97.4533 346.587 97.2133 346.886 97.032C347.184 96.8507 347.515 96.7173 347.878 96.632C348.251 96.5467 348.619 96.504 348.982 96.504C349.398 96.504 349.782 96.5573 350.134 96.664C350.496 96.7707 350.811 96.936 351.078 97.16C351.355 97.384 351.574 97.6613 351.734 97.992C351.894 98.3227 351.984 98.712 352.006 99.16H350.998ZM356.357 96.744H358.037V97.592H356.357V103.16C356.357 103.491 356.4 103.752 356.485 103.944C356.581 104.125 356.81 104.227 357.173 104.248C357.461 104.248 357.749 104.232 358.037 104.2V105.048C357.888 105.048 357.738 105.053 357.589 105.064C357.44 105.075 357.29 105.08 357.141 105.08C356.469 105.08 356 104.952 355.733 104.696C355.466 104.429 355.338 103.944 355.349 103.24V97.592H353.909V96.744H355.349V94.264H356.357V96.744ZM366.427 100.296C366.417 99.912 366.347 99.544 366.219 99.192C366.102 98.84 365.931 98.5307 365.707 98.264C365.483 97.9867 365.211 97.768 364.891 97.608C364.571 97.4373 364.209 97.352 363.803 97.352C363.387 97.352 363.019 97.4373 362.699 97.608C362.379 97.768 362.107 97.9867 361.883 98.264C361.659 98.5307 361.478 98.8453 361.339 99.208C361.211 99.56 361.126 99.9227 361.083 100.296H366.427ZM361.083 101.144C361.083 101.507 361.131 101.885 361.227 102.28C361.334 102.664 361.499 103.011 361.723 103.32C361.947 103.629 362.23 103.885 362.571 104.088C362.913 104.291 363.323 104.392 363.803 104.392C364.539 104.392 365.115 104.2 365.531 103.816C365.947 103.432 366.235 102.92 366.395 102.28H367.403C367.19 103.219 366.795 103.944 366.219 104.456C365.654 104.968 364.849 105.224 363.803 105.224C363.153 105.224 362.587 105.112 362.107 104.888C361.638 104.653 361.254 104.339 360.955 103.944C360.657 103.539 360.433 103.075 360.283 102.552C360.145 102.019 360.075 101.459 360.075 100.872C360.075 100.328 360.145 99.7947 360.283 99.272C360.433 98.7493 360.657 98.2853 360.955 97.88C361.254 97.464 361.638 97.1333 362.107 96.888C362.587 96.632 363.153 96.504 363.803 96.504C364.465 96.504 365.03 96.6373 365.499 96.904C365.969 97.1707 366.347 97.5227 366.635 97.96C366.934 98.3867 367.147 98.8827 367.275 99.448C367.403 100.003 367.457 100.568 367.435 101.144H361.083ZM377.052 105H376.124V103.432H376.092C375.985 103.699 375.825 103.944 375.612 104.168C375.409 104.392 375.175 104.584 374.908 104.744C374.641 104.893 374.353 105.011 374.044 105.096C373.745 105.181 373.447 105.224 373.148 105.224C372.519 105.224 371.969 105.112 371.5 104.888C371.041 104.653 370.657 104.339 370.348 103.944C370.039 103.539 369.809 103.075 369.66 102.552C369.511 102.019 369.436 101.459 369.436 100.872C369.436 100.285 369.511 99.7307 369.66 99.208C369.809 98.6747 370.039 98.2107 370.348 97.816C370.657 97.4107 371.041 97.0907 371.5 96.856C371.969 96.6213 372.519 96.504 373.148 96.504C373.457 96.504 373.756 96.5413 374.044 96.616C374.343 96.6907 374.62 96.808 374.876 96.968C375.132 97.1173 375.356 97.304 375.548 97.528C375.751 97.752 375.905 98.0133 376.012 98.312H376.044V93.576H377.052V105ZM370.444 100.872C370.444 101.299 370.492 101.725 370.588 102.152C370.695 102.568 370.855 102.941 371.068 103.272C371.292 103.603 371.575 103.875 371.916 104.088C372.257 104.291 372.668 104.392 373.148 104.392C373.681 104.392 374.129 104.291 374.492 104.088C374.865 103.875 375.164 103.603 375.388 103.272C375.623 102.941 375.788 102.568 375.884 102.152C375.991 101.725 376.044 101.299 376.044 100.872C376.044 100.445 375.991 100.024 375.884 99.608C375.788 99.1813 375.623 98.8027 375.388 98.472C375.164 98.1413 374.865 97.8747 374.492 97.672C374.129 97.4587 373.681 97.352 373.148 97.352C372.668 97.352 372.257 97.4587 371.916 97.672C371.575 97.8747 371.292 98.1413 371.068 98.472C370.855 98.8027 370.695 99.1813 370.588 99.608C370.492 100.024 370.444 100.445 370.444 100.872Z"
    fill="#3F2E21"
  />
  <path
    fill-rule="evenodd"
    clip-rule="evenodd"
    d="M173.474 148.901L104.771 188.596C101.813 190.314 98.187 190.314 95.229 188.596L26.5261 148.901C23.5681 147.184 21.7551 144.035 21.7551 140.695V61.305C21.7551 57.8699 23.5681 54.8164 26.5261 53.0989L95.229 13.4039C98.187 11.6863 101.813 11.6863 104.771 13.4039L173.474 53.0989C176.432 54.8164 178.245 57.9653 178.245 61.305V140.695C178.149 144.035 176.336 147.184 173.474 148.901Z"
    fill="#8D6748"
  />
  <path
    d="M99.9046 27.049C100.859 27.049 101.718 27.3353 102.576 27.8124L161.928 62.0684C163.55 63.0226 164.6 64.8356 164.6 66.744V135.256C164.6 137.164 163.55 138.977 161.928 139.932L102.576 174.188C101.718 174.665 100.859 174.951 99.9046 174.951C98.9504 174.951 97.9962 174.665 97.2328 174.188L37.8812 139.932C36.259 138.977 35.2094 137.164 35.2094 135.256V66.744C35.2094 64.8356 36.259 63.0226 37.8812 62.0684L97.2328 27.8124C98.0916 27.3353 99.0458 27.049 99.9046 27.049ZM99.9046 24.1864C98.4733 24.1864 97.042 24.5681 95.8015 25.3314L36.4499 59.5874C33.8735 61.0188 32.3468 63.786 32.3468 66.6486V135.161C32.3468 138.119 33.8735 140.79 36.4499 142.222L95.8015 176.478C97.042 177.241 98.4733 177.623 99.9046 177.623C101.336 177.623 102.767 177.241 104.008 176.478L163.359 142.222C165.936 140.79 167.462 138.023 167.462 135.161V66.6486C167.462 63.6905 165.936 61.0188 163.359 59.5874L104.008 25.3314C102.767 24.5681 101.336 24.1864 99.9046 24.1864Z"
    fill="white"
  />
  <path
    d="M108.349 66.6486C108.349 66.1715 107.968 65.6944 107.395 65.6944H98.4256H89.456C88.9789 65.6944 88.5018 66.0761 88.5018 66.6486C88.5018 69.8929 88.9789 81.0571 93.7499 86.4961C93.9408 86.6869 94.1316 86.7823 94.4179 86.7823H102.433C102.719 86.7823 102.91 86.6869 103.101 86.4961C107.872 81.1525 108.349 69.9883 108.349 66.6486ZM101.288 84.0152H95.6584C95.3721 84.0152 95.1813 83.9197 94.9904 83.7289C91.7461 79.9121 91.3644 72.2784 91.269 69.6066C91.269 69.1295 91.6507 68.6524 92.2232 68.6524H98.521H104.819C105.296 68.6524 105.773 69.0341 105.773 69.6066C105.773 72.2784 105.296 79.8166 102.052 83.7289C101.765 83.9197 101.574 84.0152 101.288 84.0152Z"
    fill="white"
  />
  <path
    d="M100.239 63.786C100.239 63.786 103.674 61.7821 101.574 58.1561C100.334 56.2477 99.7614 54.6256 100.239 53.9576C98.9981 55.4844 96.8988 57.1065 99.1889 60.5417C99.9523 61.4005 100.334 63.2134 100.239 63.786Z"
    fill="white"
  />
  <path
    d="M96.4217 64.0722C96.4217 64.0722 98.7118 62.7364 97.2805 60.2554C96.4217 59.015 96.04 57.8699 96.4217 57.4882C95.5629 58.5378 94.227 59.5875 95.7538 61.973C96.2309 62.4501 96.4217 63.6906 96.4217 64.0722Z"
    fill="white"
  />
  <path
    d="M104.246 75.141C103.865 77.7174 103.101 80.6754 101.479 82.5838C101.288 82.7747 101.097 82.8701 100.907 82.8701H96.1355C95.9446 82.8701 95.6584 82.7747 95.5629 82.5838C94.4179 81.1525 93.6545 79.2441 93.1774 77.2403C93.1774 77.2403 98.7118 78.0036 101.861 76.8586C104.151 75.9998 104.246 75.141 104.246 75.141Z"
    fill="white"
  />
  <path
    d="M41.5549 90.5992H45.0854L50.9061 99.5687L56.7267 90.5992H60.2573V109.683H56.9176V96.0381L50.9061 105.008H50.8107L44.8946 96.1335V109.779H41.5549V90.5992Z"
    fill="white"
  />
  <path
    d="M77.5285 109.97C76.0971 109.97 74.7612 109.683 73.5208 109.206C72.2803 108.729 71.2307 107.966 70.3719 107.107C69.5131 106.248 68.8452 105.198 68.3681 103.958C67.891 102.813 67.6047 101.477 67.6047 100.141V100.046C67.6047 98.7099 67.891 97.4694 68.3681 96.229C68.8452 95.0839 69.5131 94.0343 70.4673 93.0801C71.3261 92.2213 72.3757 91.4579 73.6162 90.9808C74.8567 90.4083 76.1926 90.2175 77.6239 90.2175C79.0552 90.2175 80.3911 90.5037 81.6315 90.9808C82.872 91.4579 83.9216 92.2213 84.7804 93.0801C85.6392 93.9389 86.3071 94.9885 86.7842 96.229C87.2613 97.374 87.5476 98.7099 87.5476 100.046V100.141C87.5476 101.477 87.2613 102.718 86.7842 103.958C86.3071 105.103 85.6392 106.153 84.685 107.107C83.8262 107.966 82.7766 108.729 81.5361 109.206C80.2956 109.779 78.9598 109.97 77.5285 109.97ZM77.5285 106.916C78.4827 106.916 79.3414 106.725 80.1048 106.344C80.8682 105.962 81.5361 105.485 82.1086 104.912C82.6812 104.34 83.0628 103.576 83.4445 102.813C83.7308 101.954 83.9216 101.095 83.9216 100.237V100.141C83.9216 99.187 83.7308 98.3282 83.4445 97.4694C83.1583 96.6106 82.6812 95.9427 82.1086 95.2748C81.5361 94.7022 80.8682 94.2251 80.1048 93.8434C79.3414 93.4618 78.4827 93.2709 77.5285 93.2709C76.5742 93.2709 75.7155 93.4618 74.9521 93.8434C74.1887 94.2251 73.5208 94.7022 72.9483 95.2748C72.3757 95.8473 71.9941 96.6106 71.6124 97.374C71.3261 98.2328 71.1353 99.0916 71.1353 99.9504V100.046C71.1353 101 71.3261 101.859 71.6124 102.718C71.8986 103.576 72.3757 104.244 72.9483 104.912C73.5208 105.485 74.1887 105.962 74.9521 106.344C75.7155 106.725 76.6697 106.916 77.5285 106.916Z"
    fill="white"
  />
  <path
    d="M103.674 109.97C102.242 109.97 101.002 109.683 99.8568 109.206C98.7118 108.729 97.6622 107.966 96.8034 107.107C95.9446 106.248 95.2767 105.198 94.7996 103.958C94.3225 102.718 94.0362 101.477 94.0362 100.141V100.046C94.0362 98.7099 94.3225 97.374 94.7996 96.229C95.2767 95.0839 95.9446 94.0343 96.8034 93.0801C97.6622 92.2213 98.7118 91.4579 99.9523 90.9808C101.193 90.5037 102.433 90.2175 103.96 90.2175C104.819 90.2175 105.582 90.3129 106.345 90.4083C107.109 90.5991 107.681 90.79 108.349 90.9808C108.922 91.2671 109.494 91.5534 109.971 91.935C110.449 92.3167 110.926 92.6984 111.403 93.1755L109.208 95.6564C108.445 94.9885 107.681 94.416 106.823 93.9389C105.964 93.4618 105.01 93.2709 103.865 93.2709C102.91 93.2709 102.147 93.4618 101.384 93.8434C100.62 94.2251 99.9523 94.7022 99.3797 95.2748C98.8072 95.8473 98.4255 96.6106 98.0439 97.374C97.7576 98.2328 97.5668 99.0916 97.5668 99.9504V100.046C97.5668 101 97.7576 101.859 98.0439 102.718C98.3301 103.576 98.8072 104.244 99.3797 104.912C99.9523 105.485 100.62 106.057 101.384 106.344C102.147 106.63 103.006 106.916 103.865 106.916C105.01 106.916 106.059 106.725 106.823 106.248C107.586 105.771 108.445 105.198 109.303 104.435L111.498 106.63C111.021 107.202 110.544 107.584 109.971 108.061C109.399 108.538 108.826 108.824 108.254 109.111C107.681 109.397 106.918 109.683 106.25 109.779C105.391 109.97 104.532 109.97 103.674 109.97Z"
    fill="white"
  />
  <path
    d="M118.178 90.5992H121.517V98.5191H130.678V90.5992H134.017V109.683H130.678V101.668H121.517V109.683H118.178V90.5992Z"
    fill="white"
  />
  <path
    d="M148.808 90.5037H151.861L160.258 109.683H156.728L154.819 105.103H145.85L143.846 109.683H140.411L148.808 90.5037ZM153.579 102.145L150.334 94.5114L147.09 102.145H153.579Z"
    fill="white"
  />
  <path d="M160.831 115.695H39.1694V116.744H160.831V115.695Z" fill="white" />
  <path
    d="M160.831 79.8166H109.113C109.113 80.1983 109.017 80.4846 109.017 80.8662H160.831V79.8166Z"
    fill="white"
  />
  <path
    d="M39.1694 79.8166V80.8662H87.9293C87.9293 80.4846 87.8339 80.1983 87.8339 79.8166H39.1694Z"
    fill="white"
  />
</svg>
