<svg xmlns="http://www.w3.org/2000/svg" height="64" viewBox="0 0 30.9 30.9">
  <path fill="#7FADF2" d="M15.5 0C6.9 0 0 6.9 0 15.5c0 4.2 1.7 8 4.4 10.8.3.3.5.5.8.7.3.2.5.5.8.7 2.6 2 5.9 3.3 9.5 3.3 3.6 0 6.9-1.2 9.5-3.3.3-.2.5-.4.8-.7.3-.2.5-.5.8-.7 2.7-2.8 4.4-6.6 4.4-10.8C30.9 6.9 24 0 15.5 0zm0 29.4c-3.4 0-6.4-1.2-8.8-3.2 1.2-2.2 3.3-3.9 5.8-4.7.4-.1.7-.5.7-.9s-.2-.8-.5-1c-1.9-1.1-3.2-3.1-3.2-5.3 0-3.3 2.7-6 6-6s6 2.7 6 6c0 2.2-1.2 4.2-3.2 5.3-.4.2-.6.6-.5 1 0 .4.3.7.7.9 2.5.8 4.6 2.5 5.8 4.7-2.4 2-5.5 3.2-8.8 3.2zm10.3-4.6c-1.2-1.9-2.9-3.5-4.9-4.5 1.6-1.5 2.6-3.6 2.6-5.9 0-4.4-3.6-8-8-8s-8 3.6-8 8c0 2.3 1 4.4 2.6 5.9-2.1 1-3.8 2.6-4.9 4.5C3 22.3 1.6 19 1.6 15.4c0-7.7 6.3-14 14-14s14 6.3 14 14c-.2 3.7-1.6 6.9-3.8 9.4z"/>
</svg>
