<?xml version="1.0" encoding="utf-8"?>
<!-- Generator: Adobe Illustrator 19.0.0, SVG Export Plug-In . SVG Version: 6.00 Build 0)  -->
<svg version="1.1" id="Layer_1" xmlns="http://www.w3.org/2000/svg" xmlns:xlink="http://www.w3.org/1999/xlink" x="0px" y="0px"
	 viewBox="0 0 30.9 30.9" enable-background="new 0 0 30.9 30.9" xml:space="preserve" height="64">
<path id="XMLID_64_" fill="#7FADF2" d="M15.5,0C6.9,0,0,6.9,0,15.5c0,4.2,1.7,8,4.4,10.8c0.3,0.3,0.5,0.5,0.8,0.7
	c0.3,0.2,0.5,0.5,0.8,0.7c2.6,2,5.9,3.3,9.5,3.3c3.6,0,6.9-1.2,9.5-3.3c0.3-0.2,0.5-0.4,0.8-0.7c0.3-0.2,0.5-0.5,0.8-0.7
	c2.7-2.8,4.4-6.6,4.4-10.8C30.9,6.9,24,0,15.5,0z M15.5,29.4c-3.4,0-6.4-1.2-8.8-3.2c1.2-2.2,3.3-3.9,5.8-4.7
	c0.4-0.1,0.7-0.5,0.7-0.9c0-0.4-0.2-0.8-0.5-1c-1.9-1.1-3.2-3.1-3.2-5.3c0-3.3,2.7-6,6-6c3.3,0,6,2.7,6,6c0,2.2-1.2,4.2-3.2,5.3
	c-0.4,0.2-0.6,0.6-0.5,1c0,0.4,0.3,0.7,0.7,0.9c2.5,0.8,4.6,2.5,5.8,4.7C21.9,28.2,18.8,29.4,15.5,29.4z M25.8,24.8
	c-1.2-1.9-2.9-3.5-4.9-4.5c1.6-1.5,2.6-3.6,2.6-5.9c0-4.4-3.6-8-8-8c-4.4,0-8,3.6-8,8c0,2.3,1,4.4,2.6,5.9c-2.1,1-3.8,2.6-4.9,4.5
	c-2.2-2.5-3.6-5.8-3.6-9.4c0-7.7,6.3-14,14-14s14,6.3,14,14C29.4,19.1,28,22.3,25.8,24.8z"/>
</svg>
