<svg xmlns="http://www.w3.org/2000/svg" width="192" height="192" viewBox="0 0 192 192">
  <title>
    Mocha Logo
  </title>
  <path fill="#8d6748" fill-rule="evenodd" d="M169.474 143.901l-68.703 39.695a9.48 9.48 0 0 1-9.542 0l-68.703-39.695c-2.958-1.717-4.77-4.866-4.77-8.206v-79.39c0-3.435 1.812-6.489 4.77-8.206L91.23 8.404a9.48 9.48 0 0 1 9.542 0l68.703 39.695c2.958 1.717 4.77 4.866 4.77 8.206v79.39c-.095 3.34-1.908 6.489-4.77 8.206z" clip-rule="evenodd"/>
  <path fill="#fff" d="M95.905 22.049c.954 0 1.813.286 2.671.763l59.352 34.256a5.49 5.49 0 0 1 2.672 4.676v68.512a5.49 5.49 0 0 1-2.672 4.676l-59.352 34.256c-.858.477-1.717.763-2.671.763a5.13 5.13 0 0 1-2.672-.763L33.88 134.932a5.49 5.49 0 0 1-2.672-4.676V61.744a5.49 5.49 0 0 1 2.672-4.676l59.352-34.256c.859-.477 1.813-.763 2.672-.763m0-2.863a7.838 7.838 0 0 0-4.104 1.145L32.45 54.587c-2.576 1.432-4.103 4.199-4.103 7.062v68.512c0 2.958 1.527 5.63 4.103 7.06l59.35 34.258a7.837 7.837 0 0 0 4.104 1.145 7.838 7.838 0 0 0 4.103-1.145l59.351-34.256c2.577-1.432 4.103-4.199 4.103-7.061V61.649c0-2.958-1.526-5.63-4.103-7.062l-59.351-34.256a7.838 7.838 0 0 0-4.103-1.145z"/>
  <path fill="#fff" d="M104.35 61.649a.956.956 0 0 0-.955-.955H85.456a.956.956 0 0 0-.954.955c0 3.244.477 14.408 5.248 19.847.19.19.382.286.668.286h8.015c.286 0 .477-.095.668-.286 4.771-5.343 5.248-16.508 5.248-19.847zm-7.062 17.366h-5.63c-.286 0-.477-.095-.668-.286-3.244-3.817-3.626-11.45-3.721-14.122 0-.477.382-.955.954-.955h12.596c.477 0 .954.382.954.955 0 2.671-.477 10.21-3.721 14.122-.287.19-.478.286-.764.286zm-1.049-20.229s3.435-2.004 1.335-5.63c-1.24-1.908-1.813-3.53-1.335-4.198-1.24 1.526-3.34 3.149-1.05 6.584.763.858 1.145 2.671 1.05 3.244zm-3.817.286s2.29-1.336.859-3.817c-.86-1.24-1.241-2.385-.86-2.767-.858 1.05-2.194 2.1-.667 4.485.477.477.668 1.718.668 2.1z"/>
  <path fill="#fff" d="M100.246 70.141c-.381 2.576-1.145 5.534-2.767 7.443-.19.19-.382.286-.573.286h-4.77c-.191 0-.478-.095-.573-.286-1.145-1.431-1.908-3.34-2.386-5.344 0 0 5.535.764 8.684-.381 2.29-.86 2.385-1.718 2.385-1.718zM37.555 85.6h3.53l5.821 8.969 5.82-8.97h3.531v19.084h-3.34V91.038l-6.01 8.97h-.096l-5.916-8.874v13.645h-3.34v-19.18zm35.973 19.37a11.09 11.09 0 0 1-4.007-.764c-1.24-.477-2.29-1.24-3.15-2.1-.858-.858-1.526-1.908-2.003-3.148a10.087 10.087 0 0 1-.763-3.817v-.095c0-1.336.286-2.577.763-3.817a9.585 9.585 0 0 1 2.1-3.149c.858-.859 1.908-1.622 3.148-2.1 1.24-.572 2.577-.763 4.008-.763s2.767.287 4.008.764c1.24.477 2.29 1.24 3.148 2.1.86.858 1.527 1.907 2.004 3.148.477 1.145.764 2.48.764 3.817v.095c0 1.336-.287 2.577-.764 3.817a9.585 9.585 0 0 1-2.099 3.149c-.859.859-1.908 1.622-3.149 2.1-1.24.572-2.576.763-4.008.763zm0-3.054c.955 0 1.813-.19 2.577-.572a7.641 7.641 0 0 0 2.004-1.432c.572-.572.954-1.336 1.336-2.099.286-.859.477-1.718.477-2.576v-.096c0-.954-.191-1.813-.477-2.672-.287-.858-.764-1.526-1.336-2.194a7.641 7.641 0 0 0-2.004-1.432c-.764-.381-1.622-.572-2.577-.572-.954 0-1.813.19-2.576.572a7.641 7.641 0 0 0-2.004 1.432c-.572.572-.954 1.336-1.336 2.099-.286.859-.477 1.718-.477 2.576v.096c0 .954.191 1.813.477 2.672.287.858.764 1.526 1.336 2.194a7.641 7.641 0 0 0 2.004 1.432c.763.381 1.718.572 2.576.572zm26.146 3.054a9.724 9.724 0 0 1-3.817-.764c-1.145-.477-2.195-1.24-3.054-2.1-.858-.858-1.526-1.908-2.003-3.148-.478-1.24-.764-2.48-.764-3.817v-.095c0-1.336.286-2.672.764-3.817a11.019 11.019 0 0 1 2.003-3.149c.86-.859 1.909-1.622 3.15-2.1 1.24-.476 2.48-.763 4.007-.763.859 0 1.622.096 2.385.191.764.191 1.336.382 2.004.573.573.286 1.145.572 1.622.954.478.382.955.763 1.432 1.24l-2.195 2.481c-.763-.668-1.527-1.24-2.385-1.717-.86-.477-1.813-.668-2.958-.668-.955 0-1.718.19-2.481.572a7.641 7.641 0 0 0-2.004 1.432c-.573.572-.954 1.336-1.336 2.099-.286.859-.477 1.718-.477 2.576v.096c0 .954.19 1.813.477 2.672.286.858.763 1.526 1.336 2.194.572.573 1.24 1.145 2.004 1.432.763.286 1.622.572 2.48.572 1.146 0 2.195-.19 2.959-.668.763-.477 1.622-1.05 2.48-1.813l2.195 2.195c-.477.572-.954.954-1.527 1.431-.572.477-1.145.763-1.717 1.05-.573.286-1.336.572-2.004.668-.859.19-1.718.19-2.576.19zm14.504-19.37h3.34v7.92h9.16V85.6h3.34v19.083h-3.34v-8.015h-9.16v8.015h-3.34V85.6zm30.63-.096h3.053l8.397 19.18h-3.53l-1.909-4.58h-8.97l-2.003 4.58h-3.435l8.397-19.18zm4.77 11.641l-3.244-7.634-3.244 7.634h6.489zm-114.409 13.55H156.83v1.05H35.169zM156.83 74.817h-51.717c0 .381-.096.668-.096 1.05h51.814v-1.05zm-121.66 0v1.05h48.76c0-.382-.096-.669-.096-1.05H35.169z"/>
</svg>
